P1
#image4
17 17 
00000011111000000
00011111111111000
00111111111111100
01111111111111110
01111111111111110
01111111111111110
01110011111001110
10100001110000101
10101110001110101
01111011111011110
01101110001110110
00100000000000100
00101000000010100
00100111111100100
00010000000001000
00001111111110000
00000000000000000
