P1
#image0
77 23 
00000000000000000000001111110000000000000000000000000000000000000000000000000
00000000000000000000000111111000000000000000000000000000000000000000000000000
00000000000000000000000011111110000000000000000000000000000000000000000000000
00000000000000000000000001111110000000000000000000000000000000000001111100000
00000000000000000000000001111111000000000000000000000000000000000111111111000
00000000000000000000000000111011000000000000000000000000000000001111000111100
00000000000000000000000000110001100000000000000000000000000000011100000001110
00000000000000000000000001100001100000000000000000000000000000011000000000110
00000000000011111111111111100000110111000000000000000000011100111000000000111
00000011111111011111111101000000110111111111111111111111111111110000000000011
00011111000010000000000000001110111111111111111111111111111111110000000000011
11111000000000000000000000000100111111111111111111111111111111110000000000011
00011111000010000000000000001010111111111111111111111111111111110000000000011
00000011111111011111111101000000110111111111111111111111111111110000000000110
00000000000011111111111111100000110111000000000000000000011100111000000000111
00000000000000000000000001100001100000000000000000000000000000011000000000110
00000000000000000000000000110001100000000000000000000000000000011100000001110
00000000000000000000000000111011000000000000000000000000000000001111000111100
00000000000000000000000001111111000000000000000000000000000000000111111111000
00000000000000000000000001111110000000000000000000000000000000000001111100000
00000000000000000000000011111110000000000000000000000000000000000000000000000
00000000000000000000000111111000000000000000000000000000000000000000000000000
00000000000000000000001111110000000000000000000000000000000000000000000000000
