P1
#image4
11 11 
00010001000
00100000100
01001110010
10010001001
10100100101
11101010111
10100100101
10010001001
01001110010
00100000100
00010001000
